<mxfile host="app.diagrams.net" modified="2023-09-06T03:00:12.553Z" agent="Mozilla/5.0 (Windows NT 10.0; Win64; x64) AppleWebKit/537.36 (KHTML, like Gecko) Chrome/116.0.0.0 Safari/537.36" version="21.6.9" etag="XuQCYHrjBvAuBaHNfeYa" type="github">
  <diagram name="第 1 页" id="-UWDTgf1hpQ8HNxKM1Yc">
    <mxGraphModel>
      <root>
        <mxCell id="0" />
        <mxCell id="1" parent="0" />
      </root>
    </mxGraphModel>
  </diagram>
</mxfile>
